<?xml version="1.0" standalone="no"?>
<!DOCTYPE svg PUBLIC "-//W3C//DTD SVG 20010904//EN"
 "http://www.w3.org/TR/2001/REC-SVG-20010904/DTD/svg10.dtd">
<svg version="1.0" xmlns="http://www.w3.org/2000/svg"
 width="51.000000pt" height="34.000000pt" viewBox="0 0 51.000000 34.000000"
 preserveAspectRatio="xMidYMid meet">

<g transform="translate(0.000000,34.000000) scale(0.100000,-0.100000)"
fill="#000000" stroke="none">
<path d="M157 315 c-54 -20 -108 -66 -135 -113 l-22 -40 33 -43 c73 -96 199
-133 317 -94 59 20 135 87 146 129 12 51 -66 134 -155 164 -45 16 -137 14
-184 -3z m137 -39 c81 -34 101 -119 42 -184 -30 -33 -40 -37 -81 -37 -41 0
-51 4 -81 37 -26 29 -34 46 -34 77 0 45 29 87 74 107 39 17 40 17 80 0z"/>
<path d="M209 222 c-47 -39 -16 -122 46 -122 38 0 68 32 67 71 -2 61 -65 89
-113 51z"/>
</g>
</svg>
